<?xml version="1.0" standalone="no"?>
<svg xmlns:xlink="http://www.w3.org/1999/xlink" id="wave" style="transform:rotate(0deg); transition: 0.3s" viewBox="0 0 1440 490" version="1.1" xmlns="http://www.w3.org/2000/svg"><defs><linearGradient id="sw-gradient-0" x1="0" x2="0" y1="1" y2="0"><stop stop-color="rgba(144, 238, 144, 1)" offset="0%"/><stop stop-color="rgba(144, 238, 144, 1)" offset="100%"/></linearGradient></defs><path style="transform:translate(0, 0px); opacity:1" fill="url(#sw-gradient-0)" d="M0,98L60,114.3C120,131,240,163,360,196C480,229,600,261,720,228.7C840,196,960,98,1080,81.7C1200,65,1320,131,1440,155.2C1560,180,1680,163,1800,155.2C1920,147,2040,147,2160,196C2280,245,2400,343,2520,375.7C2640,408,2760,376,2880,302.2C3000,229,3120,114,3240,89.8C3360,65,3480,131,3600,138.8C3720,147,3840,98,3960,73.5C4080,49,4200,49,4320,73.5C4440,98,4560,147,4680,204.2C4800,261,4920,327,5040,302.2C5160,278,5280,163,5400,98C5520,33,5640,16,5760,32.7C5880,49,6000,98,6120,114.3C6240,131,6360,114,6480,138.8C6600,163,6720,229,6840,228.7C6960,229,7080,163,7200,187.8C7320,212,7440,327,7560,310.3C7680,294,7800,147,7920,138.8C8040,131,8160,261,8280,302.2C8400,343,8520,294,8580,269.5L8640,245L8640,490L8580,490C8520,490,8400,490,8280,490C8160,490,8040,490,7920,490C7800,490,7680,490,7560,490C7440,490,7320,490,7200,490C7080,490,6960,490,6840,490C6720,490,6600,490,6480,490C6360,490,6240,490,6120,490C6000,490,5880,490,5760,490C5640,490,5520,490,5400,490C5280,490,5160,490,5040,490C4920,490,4800,490,4680,490C4560,490,4440,490,4320,490C4200,490,4080,490,3960,490C3840,490,3720,490,3600,490C3480,490,3360,490,3240,490C3120,490,3000,490,2880,490C2760,490,2640,490,2520,490C2400,490,2280,490,2160,490C2040,490,1920,490,1800,490C1680,490,1560,490,1440,490C1320,490,1200,490,1080,490C960,490,840,490,720,490C600,490,480,490,360,490C240,490,120,490,60,490L0,490Z"/></svg>