<?xml version="1.0" standalone="no"?>
<svg xmlns:xlink="http://www.w3.org/1999/xlink" id="wave" style="transform:rotate(0deg); transition: 0.3s" viewBox="0 0 1440 490" version="1.1" xmlns="http://www.w3.org/2000/svg"><defs><linearGradient id="sw-gradient-0" x1="0" x2="0" y1="1" y2="0"><stop stop-color="rgba(32, 178, 170, 1)" offset="0%"/><stop stop-color="rgba(32, 178, 170, 1)" offset="100%"/></linearGradient></defs><path style="transform:translate(0, 0px); opacity:1" fill="url(#sw-gradient-0)" d="M0,147L60,179.7C120,212,240,278,360,261.3C480,245,600,147,720,89.8C840,33,960,16,1080,81.7C1200,147,1320,294,1440,367.5C1560,441,1680,441,1800,408.3C1920,376,2040,310,2160,285.8C2280,261,2400,278,2520,269.5C2640,261,2760,229,2880,253.2C3000,278,3120,359,3240,343C3360,327,3480,212,3600,187.8C3720,163,3840,229,3960,253.2C4080,278,4200,261,4320,228.7C4440,196,4560,147,4680,130.7C4800,114,4920,131,5040,155.2C5160,180,5280,212,5400,253.2C5520,294,5640,343,5760,351.2C5880,359,6000,327,6120,334.8C6240,343,6360,392,6480,392C6600,392,6720,343,6840,318.5C6960,294,7080,294,7200,318.5C7320,343,7440,392,7560,359.3C7680,327,7800,212,7920,147C8040,82,8160,65,8280,106.2C8400,147,8520,245,8580,294L8640,343L8640,490L8580,490C8520,490,8400,490,8280,490C8160,490,8040,490,7920,490C7800,490,7680,490,7560,490C7440,490,7320,490,7200,490C7080,490,6960,490,6840,490C6720,490,6600,490,6480,490C6360,490,6240,490,6120,490C6000,490,5880,490,5760,490C5640,490,5520,490,5400,490C5280,490,5160,490,5040,490C4920,490,4800,490,4680,490C4560,490,4440,490,4320,490C4200,490,4080,490,3960,490C3840,490,3720,490,3600,490C3480,490,3360,490,3240,490C3120,490,3000,490,2880,490C2760,490,2640,490,2520,490C2400,490,2280,490,2160,490C2040,490,1920,490,1800,490C1680,490,1560,490,1440,490C1320,490,1200,490,1080,490C960,490,840,490,720,490C600,490,480,490,360,490C240,490,120,490,60,490L0,490Z"/></svg>