<?xml version="1.0" standalone="no"?>
<svg xmlns:xlink="http://www.w3.org/1999/xlink" id="wave" style="transform:rotate(0deg); transition: 0.3s" viewBox="0 0 1440 490" version="1.1" xmlns="http://www.w3.org/2000/svg"><defs><linearGradient id="sw-gradient-0" x1="0" x2="0" y1="1" y2="0"><stop stop-color="rgba(135, 206, 250, 1)" offset="0%"/><stop stop-color="rgba(135, 206, 250, 1)" offset="100%"/></linearGradient></defs><path style="transform:translate(0, 0px); opacity:1" fill="url(#sw-gradient-0)" d="M0,294L60,318.5C120,343,240,392,360,367.5C480,343,600,245,720,171.5C840,98,960,49,1080,89.8C1200,131,1320,261,1440,326.7C1560,392,1680,392,1800,367.5C1920,343,2040,294,2160,277.7C2280,261,2400,278,2520,253.2C2640,229,2760,163,2880,187.8C3000,212,3120,327,3240,359.3C3360,392,3480,343,3600,285.8C3720,229,3840,163,3960,130.7C4080,98,4200,98,4320,114.3C4440,131,4560,163,4680,171.5C4800,180,4920,163,5040,179.7C5160,196,5280,245,5400,245C5520,245,5640,196,5760,171.5C5880,147,6000,147,6120,196C6240,245,6360,343,6480,318.5C6600,294,6720,147,6840,89.8C6960,33,7080,65,7200,106.2C7320,147,7440,196,7560,220.5C7680,245,7800,245,7920,269.5C8040,294,8160,343,8280,326.7C8400,310,8520,229,8580,187.8L8640,147L8640,490L8580,490C8520,490,8400,490,8280,490C8160,490,8040,490,7920,490C7800,490,7680,490,7560,490C7440,490,7320,490,7200,490C7080,490,6960,490,6840,490C6720,490,6600,490,6480,490C6360,490,6240,490,6120,490C6000,490,5880,490,5760,490C5640,490,5520,490,5400,490C5280,490,5160,490,5040,490C4920,490,4800,490,4680,490C4560,490,4440,490,4320,490C4200,490,4080,490,3960,490C3840,490,3720,490,3600,490C3480,490,3360,490,3240,490C3120,490,3000,490,2880,490C2760,490,2640,490,2520,490C2400,490,2280,490,2160,490C2040,490,1920,490,1800,490C1680,490,1560,490,1440,490C1320,490,1200,490,1080,490C960,490,840,490,720,490C600,490,480,490,360,490C240,490,120,490,60,490L0,490Z"/></svg>